<svg xmlns="http://www.w3.org/2000/svg" xmlns:svg="http://www.w3.org/2000/svg" id="Layer_1" width="61.669" height="18.001" x="0" y="0" enable-background="new 302.458 113.678 76.149 59" version="1.0" viewBox="302.458 113.678 61.669 18.001" xml:space="preserve"><metadata id="metadata45"/><path id="path3" fill="#eb5831" d="m 302.458,102.658 c 0,1.668 1.353,3.021 3.021,3.021 h 10.636 c 1.668,0 3.021,-1.353 3.021,-3.021 V 90.699 c 0,-1.669 -1.354,-3.021 -3.021,-3.021 h -10.636 c -1.668,0 -3.021,1.352 -3.021,3.021 v 11.96 z"/><path id="path5" fill="#fff" d="m 315.288,93.308 -6.743,-0.007 v 2.255 h 5.244 c 0.999,0 1.499,0.497 1.499,1.49 v 3.747 c 0,0.998 -0.499,1.499 -1.499,1.499 h -7.492 l 0.75,-2.241 5.994,-0.008 v -2.247 h -5.246 c -0.998,0 -1.498,-0.497 -1.498,-1.491 v -5.253 h 8.991 v 2.25 h 0.01 z"/><g id="g7" fill="#fff" transform="translate(-0.00200104,-34.002)"><path id="path9" d="m 330.92,136.26 -0.706,-1.896 h -4.799 l -0.705,1.896 h -2.703 l 4.313,-11.195 h 2.988 l 4.313,11.195 h -2.69 z m -3.1,-8.81 -1.745,4.817 h 3.491 l -1.75,-4.82 z"/><path id="path11" d="m 334.67,136.26 v -11.19 h 5.237 c 2.435,0 3.76,1.646 3.76,3.608 0,1.947 -1.343,3.593 -3.76,3.593 h -2.854 v 3.994 h -2.39 z m 6.56,-7.58 c 0,-0.939 -0.723,-1.511 -1.662,-1.511 h -2.519 v 3.005 h 2.519 c 0.94,-0.01 1.66,-0.58 1.66,-1.5 z"/><path id="path13" d="m 345.16,136.26 v -11.19 h 5.236 c 2.434,0 3.76,1.646 3.76,3.608 0,1.947 -1.343,3.593 -3.76,3.593 h -2.854 v 3.994 h -2.39 z m 6.56,-7.58 c 0,-0.939 -0.722,-1.511 -1.662,-1.511 h -2.518 v 3.005 h 2.518 c 0.94,-0.01 1.66,-0.58 1.66,-1.5 z"/><path id="path15" d="m 354.88,134.69 1.31,-1.862 c 0.788,0.822 2.015,1.527 3.558,1.527 1.326,0 1.948,-0.587 1.948,-1.243 0,-1.946 -6.446,-0.587 -6.446,-4.8 0,-1.863 1.612,-3.407 4.247,-3.407 1.778,0 3.256,0.537 4.363,1.562 l -1.326,1.778 c -0.906,-0.838 -2.114,-1.225 -3.255,-1.225 -1.008,0 -1.579,0.437 -1.579,1.108 0,1.762 6.429,0.57 6.429,4.749 0,2.048 -1.477,3.592 -4.481,3.592 -2.17,0 -3.71,-0.73 -4.77,-1.78 z"/></g><polygon id="polygon17" fill="#a0a0a0" points="375.25 133.75 371.9 127.94 378.61 127.94" transform="translate(-0.00200104,-34.002)"/><path id="path19" fill="#eb5831" d="m 302.458,128.658 c 0,1.668 1.352,3.021 3.02,3.021 h 10.636 c 1.668,0 3.021,-1.353 3.021,-3.021 v -11.959 c 0,-1.669 -1.354,-3.021 -3.021,-3.021 h -10.636 c -1.668,0 -3.02,1.352 -3.02,3.021 v 11.96 z"/><path id="path21" fill="#fff" d="m 315.288,119.308 -6.743,-0.007 v 2.255 h 5.244 c 0.999,0 1.499,0.497 1.499,1.49 v 3.747 c 0,0.998 -0.499,1.499 -1.499,1.499 h -7.49 l 0.75,-2.241 5.994,-0.008 v -2.247 h -5.246 c -0.998,0 -1.498,-0.497 -1.498,-1.491 v -5.253 h 8.991 v 2.25 h 0.01 z"/><g id="g23" fill="#222" transform="translate(-0.00200104,-34.002)"><path id="path25" d="m 330.92,162.26 -0.706,-1.896 h -4.799 l -0.705,1.896 h -2.703 l 4.313,-11.195 h 2.988 l 4.313,11.195 h -2.69 z m -3.1,-8.81 -1.745,4.817 h 3.491 l -1.75,-4.82 z"/><path id="path27" d="m 334.67,162.26 v -11.19 h 5.237 c 2.435,0 3.761,1.646 3.761,3.608 0,1.947 -1.344,3.593 -3.761,3.593 h -2.854 v 3.994 h -2.39 z m 6.56,-7.58 c 0,-0.939 -0.723,-1.511 -1.662,-1.511 h -2.519 v 3.005 h 2.519 c 0.94,-0.01 1.66,-0.58 1.66,-1.5 z"/><path id="path29" d="m 345.16,162.26 v -11.19 h 5.236 c 2.434,0 3.76,1.646 3.76,3.608 0,1.947 -1.343,3.593 -3.76,3.593 h -2.854 v 3.994 h -2.39 z m 6.56,-7.58 c 0,-0.939 -0.722,-1.511 -1.662,-1.511 h -2.518 v 3.005 h 2.518 c 0.94,-0.01 1.66,-0.58 1.66,-1.5 z"/><path id="path31" d="m 354.88,160.69 1.31,-1.862 c 0.789,0.822 2.015,1.527 3.558,1.527 1.326,0 1.948,-0.587 1.948,-1.243 0,-1.946 -6.446,-0.587 -6.446,-4.8 0,-1.862 1.612,-3.407 4.247,-3.407 1.778,0 3.256,0.537 4.363,1.562 l -1.325,1.778 c -0.907,-0.838 -2.115,-1.225 -3.256,-1.225 -1.008,0 -1.578,0.437 -1.578,1.108 0,1.762 6.428,0.57 6.428,4.749 0,2.048 -1.477,3.592 -4.48,3.592 -2.17,0 -3.72,-0.73 -4.77,-1.78 z"/></g><polygon id="polygon33" fill="#a0a0a0" points="375.25 153.94 378.61 159.75 371.89 159.75" transform="translate(-0.00200104,-34.002)"/><rect id="rect35" width="8.196" height="8" x="306.698" y="79.678" fill="none"/><rect id="rect37" width="8.197" height="8" x="307.618" y="105.678" fill="none"/><rect id="rect39" width="7.172" height="7" x="307.208" y="131.678" fill="none"/></svg>